<svg width="31" height="31" viewBox="0 0 31 31" fill="none" xmlns="http://www.w3.org/2000/svg">
<g clip-path="url(#clip0_166_367)">
<path d="M8.71844 0C8.46151 0 8.21511 0.102064 8.03343 0.28374C7.85175 0.465416 7.74969 0.711821 7.74969 0.96875C7.74969 1.22568 7.85175 1.47208 8.03343 1.65376C8.21511 1.83544 8.46151 1.9375 8.71844 1.9375H9.68719V12.3225L0.974252 26.5767C0.70461 27.0173 0.557271 27.5218 0.547405 28.0382C0.53754 28.5547 0.665505 29.0645 0.918124 29.515C1.17074 29.9656 1.53889 30.3407 1.98465 30.6017C2.43042 30.8627 2.9377 31.0002 3.45425 31H27.5451C28.0614 31 28.5683 30.8625 29.0138 30.6016C29.4593 30.3406 29.8272 29.9658 30.0798 29.5155C30.3324 29.0652 30.4604 28.5558 30.4508 28.0397C30.4412 27.5235 30.2943 27.0192 30.0251 26.5786L21.3122 12.3206V1.9375H22.2809C22.5379 1.9375 22.7843 1.83544 22.966 1.65376C23.1476 1.47208 23.2497 1.22568 23.2497 0.96875C23.2497 0.711821 23.1476 0.465416 22.966 0.28374C22.7843 0.102064 22.5379 0 22.2809 0L8.71844 0ZM19.3747 3.875H17.4372C17.1803 3.875 16.9339 3.97706 16.7522 4.15874C16.5705 4.34042 16.4684 4.58682 16.4684 4.84375C16.4684 5.10068 16.5705 5.34708 16.7522 5.52876C16.9339 5.71044 17.1803 5.8125 17.4372 5.8125H19.3747V7.75H17.4372C17.1803 7.75 16.9339 7.85206 16.7522 8.03374C16.5705 8.21542 16.4684 8.46182 16.4684 8.71875C16.4684 8.97568 16.5705 9.22208 16.7522 9.40376C16.9339 9.58543 17.1803 9.6875 17.4372 9.6875H19.3747V11.625H17.4372C17.1803 11.625 16.9339 11.7271 16.7522 11.9087C16.5705 12.0904 16.4684 12.3368 16.4684 12.5938C16.4684 12.8507 16.5705 13.0971 16.7522 13.2788C16.9339 13.4604 17.1803 13.5625 17.4372 13.5625H19.8009L20.9828 15.5H19.3747C19.1178 15.5 18.8714 15.6021 18.6897 15.7837C18.508 15.9654 18.4059 16.2118 18.4059 16.4688C18.4059 16.7257 18.508 16.9721 18.6897 17.1538C18.8714 17.3354 19.1178 17.4375 19.3747 17.4375H22.1686L23.3524 19.375H21.3122C21.0553 19.375 20.8089 19.4771 20.6272 19.6587C20.4455 19.8404 20.3434 20.0868 20.3434 20.3438C20.3434 20.6007 20.4455 20.8471 20.6272 21.0288C20.8089 21.2104 21.0553 21.3125 21.3122 21.3125H24.5362L25.72 23.25H23.2497C22.9928 23.25 22.7464 23.3521 22.5647 23.5337C22.383 23.7154 22.2809 23.9618 22.2809 24.2188C22.2809 24.4757 22.383 24.7221 22.5647 24.9038C22.7464 25.0854 22.9928 25.1875 23.2497 25.1875H26.9038L28.3724 27.59C28.4619 27.7369 28.5106 27.9049 28.5136 28.0768C28.5166 28.2487 28.4738 28.4184 28.3895 28.5683C28.3053 28.7182 28.1827 28.843 28.0343 28.9298C27.8859 29.0167 27.7171 29.0625 27.5451 29.0625H3.45425C3.2823 29.0625 3.11346 29.0167 2.96507 28.9298C2.81667 28.843 2.69406 28.7182 2.60984 28.5683C2.52561 28.4184 2.48281 28.2487 2.48581 28.0768C2.48882 27.9049 2.53753 27.7369 2.62694 27.59L11.4813 13.0975C11.5745 12.9459 11.6241 12.7716 11.6247 12.5938V1.9375H19.3747V3.875Z" fill="#FFFAFA"/>
</g>
<defs>
<clipPath id="clip0_166_367">
<rect width="31" height="31" fill="white"/>
</clipPath>
</defs>
</svg>
