<svg width="32" height="31" viewBox="0 0 32 31" fill="none" xmlns="http://www.w3.org/2000/svg">
<path d="M1.16508 7.95889C1.31383 6.44801 2.348 5.23322 3.84612 4.98672C5.95837 4.63822 9.65375 4.25005 15.625 4.25005C21.5962 4.25005 25.2916 4.63822 27.4046 4.98672C28.902 5.23322 29.9369 6.44801 30.0849 7.95889C30.2804 9.94009 30.5 13.0518 30.5 17.0001C30.5 20.9483 30.2804 24.06 30.0849 26.0412C29.9362 27.5521 28.902 28.7669 27.4039 29.0134C25.2916 29.3619 21.5962 29.7501 15.625 29.7501C9.65375 29.7501 5.95908 29.3619 3.84542 29.0134C2.348 28.7669 1.31312 27.5521 1.16508 26.0412C0.969583 24.06 0.75 20.9483 0.75 17.0001C0.75 13.0518 0.969583 9.94009 1.16508 7.95889Z" stroke="white" stroke-width="1.5" stroke-linecap="round" stroke-linejoin="round"/>
<path d="M10.4814 4.35913C10.8051 3.36251 11.3583 2.19872 11.7734 1.38272C12.112 0.716884 12.7226 0.23805 13.4621 0.138884C14.1793 0.044632 14.902 -0.00174852 15.6253 5.03765e-05C16.5072 5.03765e-05 17.2389 0.0645088 17.7879 0.138884C18.5274 0.23805 19.138 0.717592 19.4765 1.38272C19.8916 2.19801 20.4448 3.36251 20.7685 4.35913M12.877 22.6511C12.9011 23.3233 13.3289 23.8943 13.9955 23.9842C14.4077 24.0402 14.9467 24.0834 15.6253 24.0834C16.3039 24.0834 16.843 24.0402 17.2552 23.9842C17.921 23.8943 18.3496 23.3233 18.3744 22.6511C18.3977 22.0101 18.424 21.0751 18.441 19.8157C19.7004 19.7987 20.6354 19.7725 21.2764 19.7491C21.9486 19.7243 22.5195 19.2958 22.6095 18.6299C22.6655 18.2177 22.7087 17.6786 22.7087 17.0001C22.7087 16.3215 22.6655 15.7824 22.6095 15.3702C22.5195 14.7043 21.9486 14.2758 21.2764 14.251C20.6354 14.2276 19.7004 14.2014 18.441 14.1844C18.4295 13.2391 18.4073 12.2938 18.3744 11.349C18.3496 10.6768 17.921 10.1058 17.2552 10.0159C16.7148 9.94599 16.1702 9.91286 15.6253 9.91672C14.9467 9.91672 14.4077 9.95993 13.9955 10.0159C13.3296 10.1058 12.9011 10.6768 12.8763 11.349C12.8529 11.99 12.8267 12.925 12.8097 14.1844C11.5503 14.2014 10.6153 14.2276 9.97424 14.251C9.30203 14.2758 8.73112 14.7043 8.64116 15.3702C8.5852 15.7824 8.54199 16.3215 8.54199 17.0001C8.54199 17.6786 8.5852 18.2177 8.64116 18.6299C8.73112 19.2958 9.30203 19.7243 9.97424 19.7491C10.6153 19.7725 11.5503 19.7987 12.8097 19.8157C12.8267 21.0751 12.8529 22.0101 12.8763 22.6511H12.877Z" stroke="white" stroke-width="1.5" stroke-linecap="round" stroke-linejoin="round"/>
</svg>
