<svg width="16" height="16" viewBox="0 0 16 16" fill="none" xmlns="http://www.w3.org/2000/svg">
<path d="M8.30012 1.01C9.05012 1 9.80012 1.01 10.5501 1C10.6001 1.89 10.9101 2.8 11.5601 3.43C12.2001 4.08 13.1101 4.37 14.0001 4.47V6.82C13.1701 6.79 12.3401 6.62 11.5801 6.26C11.2501 6.11 10.9501 5.92 10.6501 5.72C10.6501 7.42 10.6501 9.13 10.6401 10.82C10.6001 11.64 10.3301 12.45 9.86012 13.12C9.11012 14.24 7.80012 14.97 6.46012 14.99C5.64012 15.04 4.81012 14.81 4.11012 14.39C2.95012 13.7 2.13012 12.42 2.01012 11.06C1.99012 10.77 1.99012 10.48 2.01012 10.19C2.11012 9.08 2.66012 8.02 3.50012 7.3C4.45012 6.46 5.79012 6.06 7.04012 6.3C7.05012 7.16 7.02012 8.03 7.02012 8.89C6.45012 8.7 5.78012 8.76 5.28012 9.11C4.91012 9.35 4.64012 9.71 4.49012 10.13C4.37012 10.43 4.40012 10.75 4.41012 11.07C4.55012 12.03 5.46012 12.83 6.42012 12.74C7.06012 12.74 7.68012 12.35 8.01012 11.8C8.12012 11.61 8.24012 11.41 8.25012 11.18C8.31012 10.14 8.28012 9.1 8.29012 8.05C8.29012 5.7 8.29012 3.35 8.30012 1.01Z" fill="white"/>
</svg>
